# xmcd
#
# Track frame offsets: 
#        150
#        17517
#        34337
#        59445
#        76401
#        99120
#        119029
#        136333
#        152146
#        174124
#        222914
#
# Disc length: 3222 seconds
#
# Revision: 2
# Processed by: cddbd v1.5.2PL0 Copyright (c) Steve Scherf et al.
# Submitted via: ExactAudioCopy v0.99pb4
#
DISCID=8b0c940b
DTITLE=Paul Hardcastle - Jazzmasters V
DYEAR=2006
DGENRE=Jazz
TTITLE0=Never Far Away
TTITLE1=Chime
TTITLE2=Children Of The Ghetto
TTITLE3=Free As The Wind
TTITLE4=The Sun Says Goodbye
TTITLE5=Garden Of Eden
TTITLE6=Moon Trekin
TTITLE7=Untold Story
TTITLE8=Live For The Dream
TTITLE9=World In Action
TTITLE10=Fade Into The Night
EXTD=YEAR: 2006 ID3G: 8
EXTT0=
EXTT1=
EXTT2=
EXTT3=
EXTT4=
EXTT5=
EXTT6=
EXTT7=
EXTT8=
EXTT9=
EXTT10=
PLAYORDER=
